<svg width="45" height="45" viewBox="0 0 1204 1204" fill="none" xmlns="http://www.w3.org/2000/svg">
    <path fill-rule="evenodd" clip-rule="evenodd" d="M80.3737 290.412C48.5346 265.897 42.5975 220.213 67.1129 188.374C91.6282 156.535 137.313 150.598 169.152 175.113L563.224 478.539C574.476 487.203 582.493 498.511 587.074 510.917C599.372 540.561 590.866 575.898 564.224 596.413L170.152 899.839C138.313 924.355 92.6282 918.417 68.1129 886.578C43.5975 854.739 49.5346 809.055 81.3737 784.54L401.745 537.861L80.3737 290.412ZM657.224 897.724C616.631 897.724 583.724 930.631 583.724 971.224C583.724 1011.82 616.631 1044.72 657.224 1044.72H1079.22C1119.82 1044.72 1152.72 1011.82 1152.72 971.224C1152.72 930.631 1119.82 897.724 1079.22 897.724H657.224Z" fill="url(#paint0_linear_111_86)"/>
    <defs>
        <linearGradient id="paint0_linear_111_86" x1="52" y1="160" x2="1153" y2="1045" gradientUnits="userSpaceOnUse">
            <stop stop-color="#08FCC1"/>
            <stop offset="0.0001" stop-color="#00FF85"/>
            <stop offset="0.515625" stop-color="#7CCBF8"/>
            <stop offset="1" stop-color="#9C62FB" stop-opacity="0.85"/>
        </linearGradient>
    </defs>
</svg>
