<svg width="40" height="40" viewBox="0 0 1101 1101" fill="none" xmlns="http://www.w3.org/2000/svg">
    <path fill-rule="evenodd" clip-rule="evenodd" d="M28.3737 238.412C-3.46542 213.897 -9.4025 168.213 15.1129 136.374C39.6282 104.535 85.3125 98.5975 117.152 123.113L511.224 426.539C522.476 435.203 530.493 446.511 535.074 458.917C547.372 488.561 538.866 523.899 512.224 544.413L118.152 847.839C86.3125 872.355 40.6282 866.417 16.1129 834.578C-8.4025 802.739 -2.46542 757.055 29.3737 732.54L349.745 485.861L28.3737 238.412ZM605.224 845.724C564.631 845.724 531.724 878.631 531.724 919.224C531.724 959.817 564.631 992.724 605.224 992.724H1027.22C1067.82 992.724 1100.72 959.817 1100.72 919.224C1100.72 878.631 1067.82 845.724 1027.22 845.724H605.224Z" fill="url(#paint0_linear_111_86)"/>
    <defs>
        <linearGradient id="paint0_linear_111_86" x1="0" y1="108" x2="1101" y2="993" gradientUnits="userSpaceOnUse">
            <stop stop-color="#08FCC1"/>
            <stop offset="0.0001" stop-color="#00FF85"/>
            <stop offset="0.515625" stop-color="#7CCBF8"/>
            <stop offset="1" stop-color="#9C62FB" stop-opacity="0.85"/>
        </linearGradient>
    </defs>
</svg>
